<?xml version="1.0" encoding="utf-8"?>
<!-- Generator: Adobe Illustrator 24.0.2, SVG Export Plug-In . SVG Version: 6.00 Build 0)  -->
<svg version="1.1" id="Layer_1" xmlns="http://www.w3.org/2000/svg" xmlns:xlink="http://www.w3.org/1999/xlink" x="0px" y="0px"
	 viewBox="0 0 111 111" style="enable-background:new 0 0 111 111;" xml:space="preserve">
<style type="text/css">
	.st0{fill:#FFCE0C;}
	.st1{fill:#DD2528;}
	.st2{fill:#FFFFFF;}
</style>
<g>
	<path class="st0" d="M111.5,55.8c0,6.1-1,12-2.8,17.5c-0.2,0.6-0.4,1.2-0.6,1.8c-5.3,14.5-16.5,26.1-30.6,32.1
		c-0.5,0.2-1,0.4-1.5,0.6c-6.3,2.5-13.2,3.8-20.4,3.8c-30.9,0-55.9-25-55.9-55.9c0-30.9,25-55.9,55.9-55.9
		C86.4-0.1,111.5,24.9,111.5,55.8z"/>
	<path class="st1" d="M106.6,55.8c0,5.6-0.9,11-2.6,16c-4.8,14.4-15.8,26-29.9,31.5c-5.8,2.3-12,3.5-18.6,3.5c-28.2,0-51-22.8-51-51
		s22.8-51,51-51C83.7,4.8,106.6,27.6,106.6,55.8z"/>
	<path class="st2" d="M62.2,84.2c0-0.8,0-1.5,0-2.1c0-4.4,0-8.8,0-13.1c0-3.4-2.4-5.9-5.6-5.9c-3.2,0-5.7,2.5-5.7,5.9
		c0,4.8,0,9.7,0,14.5c0,0.6-0.1,0.8-0.8,0.8c-4.4,0-8.8,0-13.3,0c-0.2,0-0.4,0-0.7,0c0-0.3,0-0.5,0-0.7c0-9.3,0-18.7,0-28
		c0-0.5,0.1-0.8,0.5-1.1c6.5-5.7,13.1-11.5,19.6-17.2c0.1-0.1,0.2-0.2,0.4-0.3c1,0.9,2.1,1.8,3.1,2.7c5.6,4.9,11.2,9.9,16.9,14.8
		c0.3,0.3,0.5,0.6,0.5,1.1c0,9.3,0,18.7,0,28c0,0.6-0.2,0.8-0.8,0.8c-4.4,0-8.8,0-13.2,0C62.8,84.2,62.5,84.2,62.2,84.2z"/>
	<path class="st2" d="M57.8,18.3c0,1.1,0,2.2,0,3.2c0,0.5,0.2,0.7,0.6,0.6c1,0,1.9,0,2.9,0c0.4,0,0.6,0.1,0.6,0.6
		c0,0.6,0.2,1.4-0.1,1.7c-0.3,0.3-1.1,0.1-1.7,0.2c-0.6,0-1.2,0-1.8,0c-0.3,0-0.5,0.1-0.5,0.5c0,1.5,0,3,0,4.5
		c0,0.2,0.2,0.5,0.4,0.7c4.6,4.1,9.2,8.2,13.8,12.4c4,3.6,8,7.2,12,10.7c0.2,0.1,0.3,0.3,0.5,0.5c-1,1.1-1.9,2.1-2.9,3.2
		C73.3,49.7,65,42.3,56.6,34.8c-8.4,7.5-16.7,14.9-25.1,22.4c-1-1.1-1.9-2.1-3-3.4c0.2-0.1,0.4-0.2,0.5-0.3
		c8.6-7.6,17.1-15.2,25.7-22.8c0.5-0.4,0.7-0.8,0.7-1.4c0-1.5,0-2.9,0-4.5c-1.4,0-2.8,0-4.3,0c0-0.9,0-1.6,0-2.5c1.4,0,2.8,0,4.3,0
		c0-1.3,0-2.6,0-3.9C56.2,18.3,56.9,18.3,57.8,18.3z"/>
	<path class="st2" d="M34.7,84.2c-0.2,0-0.4,0-0.6,0c-2.7,0-5.4,0-8.2,0c-0.5,0-0.7-0.1-0.6-0.6c0-3.7,0-7.3,0-11
		c0-0.4,0.1-0.7,0.5-1c2.8-2.5,5.6-4.9,8.4-7.4c0.1-0.1,0.3-0.2,0.6-0.4C34.7,70.6,34.7,77.4,34.7,84.2z"/>
	<path class="st2" d="M78.4,84.2c0-6.8,0-13.5,0-20.4c0.2,0.1,0.3,0.2,0.5,0.3c2.8,2.5,5.7,5,8.5,7.5c0.2,0.2,0.4,0.5,0.4,0.7
		c0,3.9,0,7.8,0,11.6c0,0,0,0.1,0,0.2C84.7,84.2,81.6,84.2,78.4,84.2z"/>
</g>
</svg>
