<?xml version="1.0" encoding="utf-8"?>
<!-- Generator: Adobe Illustrator 24.0.2, SVG Export Plug-In . SVG Version: 6.00 Build 0)  -->
<svg version="1.1" id="Layer_1" xmlns="http://www.w3.org/2000/svg" xmlns:xlink="http://www.w3.org/1999/xlink" x="0px" y="0px"
	 viewBox="0 0 111 111" style="enable-background:new 0 0 111 111;" xml:space="preserve">
<style type="text/css">
	.st0{fill:#FFCE0C;}
	.st1{fill:#DD2528;}
	.st2{fill:#FFFFFF;}
</style>
<g>
	<path class="st0" d="M111.5,55.8c0,6.1-1,12-2.8,17.5c-0.2,0.6-0.4,1.2-0.6,1.8c-5.3,14.5-16.5,26.1-30.6,32.1
		c-0.5,0.2-1,0.4-1.5,0.6c-6.3,2.5-13.2,3.8-20.4,3.8c-30.9,0-55.9-25-55.9-55.9c0-30.9,25-55.9,55.9-55.9
		C86.4-0.1,111.5,24.9,111.5,55.8z"/>
	<path class="st1" d="M106.6,55.8c0,5.6-0.9,11-2.6,16c-4.8,14.4-15.8,26-29.9,31.5c-5.8,2.3-12,3.5-18.6,3.5c-28.2,0-51-22.8-51-51
		s22.8-51,51-51C83.7,4.8,106.6,27.6,106.6,55.8z"/>
	<g>
		<path class="st2" d="M44.5,36.8c2-5.8,6-9.3,12.2-9.2c6.1,0,10.1,3.5,12.1,9.2c6.1-4.2,11.5-3.9,15.3,0.7
			c3.6,4.3,2.9,9.8-1.8,14.8c4.4,2.2,7.5,5.6,8.4,10.5c0.8,4,0.7,8,0.1,12c-0.4,3.2-3.5,5.8-6.8,5.9c-3.5,0.2-7,0.1-10.5,0.1
			c-0.8,0-1.4,0.2-2,0.8C70,83.3,68,84,65.8,84c-6.1,0-12.3,0-18.4,0c-2.2,0-4.2-0.7-5.7-2.3c-0.6-0.6-1.2-0.9-2-0.8
			c-3.1,0-6.1,0-9.2,0c-5.1,0-8.3-3.2-8.4-8.3c0-2,0-3.9,0-5.9c0-6.5,2.9-11.2,8.9-14.3c-2.8-2.4-4.4-5.3-4.1-9
			c0.2-2.5,1.1-4.6,2.8-6.4C33.7,32.8,38.6,32.8,44.5,36.8z M57.1,81c3,0,5.5,0,8,0c3.5-0.1,5.6-1.8,5.7-5c0.1-3.8,0.3-7.6-0.2-11.3
			c-0.9-6.3-6.5-11.6-12.9-12c-6.6-0.4-13,4.1-14.5,10.4c-1.1,4.4-0.6,8.9-0.5,13.3c0.1,2.8,2.5,4.4,5,4.5
			C50.9,80.9,54.3,80.9,57.1,81z M73.8,71.1c0,1.7,0.1,3.5,0,5.2c-0.1,1.3,0.4,1.5,1.5,1.5c2.6-0.1,5.2,0,7.9,0c3,0,4.9-1.9,4.9-4.9
			c0-2.5,0-4.9,0-7.4c-0.2-8.5-9.4-14-17-10.2c-0.8,0.4-1,0.7-0.4,1.5c0.8,1.1,1.4,2.3,1.9,3.5C74,63.8,73.8,67.5,73.8,71.1z
			 M33.9,77.7C33.9,77.7,33.9,77.7,33.9,77.7c1.3,0,2.7,0,4,0c1.2,0.1,1.7-0.2,1.6-1.5c-0.1-3.1,0-6.1,0-9.2c0-3.7,0.9-7.1,3.1-10
			c0.7-1,0.4-1.3-0.5-1.8C34.8,51.6,25.6,57,25.3,65c-0.1,2.7-0.1,5.3,0,8c0,2.7,1.9,4.6,4.6,4.7C31.2,77.7,32.5,77.7,33.9,77.7z
			 M56.7,49.5c5.4-0.3,9.4-4.2,9.4-9.6c-0.1-5.9-5-9.3-9.6-9.3c-4,0.1-9.2,3.2-9.2,9.3C47.2,45.6,51.3,49.2,56.7,49.5z M83.3,44.1
			c0-4-3.1-7.3-7.1-7.3c-3.8,0-7.1,3.2-7.1,7.1c0,4,3,7.1,7,7.2C80.1,51.1,83.3,48.1,83.3,44.1z M29.9,44c0,4,3,7,7.1,7.1
			c3.9,0,7.1-3.1,7.1-7c0-4-3.3-7.3-7.2-7.2C33.1,36.8,30,40.1,29.9,44z M46.5,47.6c-0.7,1.9-2,3.4-3.8,4.9c1.4-0.1,2,1.6,3.1,0.7
			c1.3-0.9,2.7-1.7,4.1-2.5C48.7,49.8,47.6,48.8,46.5,47.6z M63.2,50.7c1.1,0.6,2.2,1,2.9,1.7c1.5,1.5,2.7,0.8,4.1-0.3
			c-1.7-1.2-2.7-2.8-3.6-4.6C65.6,48.8,64.6,49.8,63.2,50.7z"/>
	</g>
</g>
</svg>
