<?xml version="1.0" encoding="utf-8"?>
<!-- Generator: Adobe Illustrator 24.0.2, SVG Export Plug-In . SVG Version: 6.00 Build 0)  -->
<svg version="1.1" id="Layer_1" xmlns="http://www.w3.org/2000/svg" xmlns:xlink="http://www.w3.org/1999/xlink" x="0px" y="0px"
	 viewBox="0 0 111 111" style="enable-background:new 0 0 111 111;" xml:space="preserve">
<style type="text/css">
	.st0{fill:#FFCE0C;}
	.st1{fill:#DD2528;}
	.st2{fill:#FFFFFF;}
</style>
<g>
	<path class="st0" d="M111.5,55.8c0,6.1-1,12-2.8,17.5c-0.2,0.6-0.4,1.2-0.6,1.8c-5.3,14.5-16.5,26.1-30.6,32.1
		c-0.5,0.2-1,0.4-1.5,0.6c-6.3,2.5-13.2,3.8-20.4,3.8c-30.9,0-55.9-25-55.9-55.9c0-30.9,25-55.9,55.9-55.9
		C86.4-0.1,111.5,24.9,111.5,55.8z"/>
	<path class="st1" d="M106.6,55.8c0,5.6-0.9,11-2.6,16c-4.8,14.4-15.8,26-29.9,31.5c-5.8,2.3-12,3.5-18.6,3.5c-28.2,0-51-22.8-51-51
		s22.8-51,51-51C83.7,4.8,106.6,27.6,106.6,55.8z"/>
	<g>
		<path class="st2" d="M26.6,58.8c-4.4-6.4-4.2-12.1,0.6-16.1c4-3.3,9.7-3,13.4,0.6c4.3,4.3,4.3,10-0.2,15.4c0.6,0.5,1.2,1,1.9,1.5
			c1.8-1.7,3.5-3.3,5.4-5.1c-3.2-3.2-4.6-7.1-3.7-11.6c0.6-2.9,2.1-5.3,4.4-7c4.6-3.5,11.1-3,15.1,1.2c4.6,4.9,4.4,11.4-0.6,17.4
			c1.8,1.7,3.6,3.4,5.6,5.3c0.6-0.5,1.3-1,2.2-1.7C68,56,66.6,52.7,67.5,49c0.6-2.2,1.8-4.5,3.4-6c3.7-3.5,9.4-3.3,13.2,0.1
			c4.5,4.1,4.6,9.6,0.2,15.8c6,4.5,8.5,10.7,8.6,18.3c-0.9,0-1.7,0-2.7,0c-0.6-8.3-3.3-15.4-13-17.8c1.4-0.7,2.4-1.2,3.3-1.7
			c3.2-1.7,4.7-5,3.9-8.5c-0.8-3.3-3.6-5.6-7-5.6c-3.3,0-6.3,2.2-7.2,5.4c-0.9,3.3,0.6,6.9,3.7,8.6c1,0.5,2,1,3.3,1.7
			c-1.3,0.5-2.2,0.8-3.1,1.2c-0.9,0.4-1.8,0.9-2.9,1.4c2.4,4.8,3.7,9.8,3.5,15.3c-1.6,0-3,0-4.7,0c-0.6-9.7-3.4-18.1-14.6-21.3
			c1.4-0.7,2.4-1.1,3.4-1.7c3.8-2,5.6-6.2,4.5-10.3c-1-3.8-4.5-6.6-8.5-6.5c-3.9,0-7.4,3-8.3,7c-0.9,4,1.1,8,4.8,10
			c0.9,0.4,1.8,0.9,3.1,1.6c-11,3.2-13.9,11.4-14.5,21.3c-1.5,0-3,0-4.5,0c-0.6-3.9-0.1-6.6,3.3-15.6c-1.7-0.7-3.4-1.5-5.5-2.4
			c1.2-0.6,2-1,2.9-1.4c3.3-1.7,5-5.1,4.2-8.6c-0.7-3.3-3.8-5.7-7.2-5.7c-3.3,0-6.3,2.4-7,5.6c-0.8,3.6,0.8,7,4.1,8.7
			c0.9,0.4,1.7,0.8,3.1,1.5c-9.5,2.5-12.3,9.3-12.9,17.9c-0.8,0-1.6,0.1-2.3,0.1C17.1,71.7,20.6,64.1,26.6,58.8z"/>
	</g>
</g>
</svg>
