<?xml version="1.0" encoding="utf-8"?>
<!-- Generator: Adobe Illustrator 24.0.2, SVG Export Plug-In . SVG Version: 6.00 Build 0)  -->
<svg version="1.1" id="Layer_1" xmlns="http://www.w3.org/2000/svg" xmlns:xlink="http://www.w3.org/1999/xlink" x="0px" y="0px"
	 viewBox="0 0 111 111" style="enable-background:new 0 0 111 111;" xml:space="preserve">
<style type="text/css">
	.st0{fill:#FFCE0C;}
	.st1{fill:#DD2528;}
	.st2{fill:#FFFFFF;}
</style>
<g>
	<path class="st0" d="M111.5,55.8c0,6.1-1,12-2.8,17.5c-0.2,0.6-0.4,1.2-0.6,1.8c-5.3,14.5-16.5,26.1-30.6,32.1
		c-0.5,0.2-1,0.4-1.5,0.6c-6.3,2.5-13.2,3.8-20.4,3.8c-30.9,0-55.9-25-55.9-55.9c0-30.9,25-55.9,55.9-55.9
		C86.4-0.1,111.5,24.9,111.5,55.8z"/>
	<path class="st1" d="M106.6,55.8c0,5.6-0.9,11-2.6,16c-4.8,14.4-15.8,26-29.9,31.5c-5.8,2.3-12,3.5-18.6,3.5c-28.2,0-51-22.8-51-51
		s22.8-51,51-51C83.7,4.8,106.6,27.6,106.6,55.8z"/>
	<path class="st2" d="M58.8,82.6c0.2,0,0.3-0.1,0.5-0.1c0.1,0,0.1,0,0.2-0.1c0.2-0.1,0.4-0.1,0.6-0.2c0.6-0.2,1.2-0.4,1.7-0.7
		c0.1-0.1,0.3-0.1,0.4-0.2c0.1,0,0.1-0.1,0.2-0.1c0.2-0.1,0.3-0.2,0.5-0.3c0.3-0.2,0.6-0.4,0.9-0.6c0.3-0.2,0.6-0.4,0.8-0.6
		c0.4-0.3,0.7-0.6,1.1-1c0,0,0,0,0,0l7-7l2.4-2.4l4.6-4.6c1.6-1.6,2.5-3.8,2.5-6.1c0-2.3-0.9-4.5-2.5-6.1c-1.6-1.6-3.8-2.5-6.1-2.5
		c-2.3,0-4.5,0.9-6.1,2.5l-2.9,2.9l-0.4,0.4V37.2c0-4.8-3.9-8.6-8.6-8.6c-3.4,0-6.3,1.9-7.7,4.8l0,0c-0.3,0.6-0.5,1.2-0.7,1.8
		c-0.1,0.3-0.1,0.7-0.2,1c0,0.1,0,0.2,0,0.3c0,0.1,0,0.1,0,0.2c0,0.1,0,0.2,0,0.3c0,0.1,0,0.2,0,0.2v18.7l-3.3-3.3
		C42,50.9,39.8,50,37.5,50c-2.3,0-4.5,0.9-6.1,2.5c-1.6,1.6-2.5,3.8-2.5,6.1c0,2.3,0.9,4.5,2.5,6.1l14,14c2.7,2.7,6.3,4.2,10.1,4.2
		h0C56.7,83,57.8,82.8,58.8,82.6z M55.6,79.3C55.6,79.3,55.6,79.3,55.6,79.3c-2.9,0-5.6-1.1-7.6-3.1l-14-14
		c-0.9-0.9-1.5-2.2-1.5-3.5c0-1.3,0.5-2.6,1.5-3.5c0.9-0.9,2.2-1.5,3.5-1.5c1.3,0,2.6,0.5,3.5,1.5l6.4,6.4c0.5,0.5,1.3,0.7,2,0.4
		c0.7-0.3,1.1-0.9,1.1-1.7V37.2c0-0.1,0-0.2,0-0.3c0.1-2.6,2.3-4.7,5-4.7c2.8,0,5,2.2,5,5v23.1c0,0.7,0.4,1.4,1.1,1.7
		c0.7,0.3,1.5,0.1,2-0.4l3.1-3.1l3.3-3.3c0.9-0.9,2.2-1.5,3.5-1.5c1.3,0,2.6,0.5,3.5,1.5c0.9,0.9,1.5,2.2,1.5,3.5
		c0,1.3-0.5,2.6-1.5,3.5l-4.3,4.3l-9.7,9.7C61.1,78.2,58.4,79.3,55.6,79.3C55.6,79.3,55.6,79.3,55.6,79.3z"/>
</g>
</svg>
