<?xml version="1.0" encoding="utf-8"?>
<!-- Generator: Adobe Illustrator 24.0.2, SVG Export Plug-In . SVG Version: 6.00 Build 0)  -->
<svg version="1.1" id="Layer_1" xmlns="http://www.w3.org/2000/svg" xmlns:xlink="http://www.w3.org/1999/xlink" x="0px" y="0px"
	 viewBox="0 0 111 111" style="enable-background:new 0 0 111 111;" xml:space="preserve">
<style type="text/css">
	.st0{fill:#FFCE0C;}
	.st1{fill:#DD2528;}
	.st2{fill:#FFFFFF;}
</style>
<g>
	<path class="st0" d="M111.5,55.8c0,6.1-1,12-2.8,17.5c-0.2,0.6-0.4,1.2-0.6,1.8c-5.3,14.5-16.5,26.1-30.6,32.1
		c-0.5,0.2-1,0.4-1.5,0.6c-6.3,2.5-13.2,3.8-20.4,3.8c-30.9,0-55.9-25-55.9-55.9c0-30.9,25-55.9,55.9-55.9
		C86.4-0.1,111.5,24.9,111.5,55.8z"/>
	<path class="st1" d="M106.6,55.8c0,5.6-0.9,11-2.6,16c-4.8,14.4-15.8,26-29.9,31.5c-5.8,2.3-12,3.5-18.6,3.5c-28.2,0-51-22.8-51-51
		s22.8-51,51-51C83.7,4.8,106.6,27.6,106.6,55.8z"/>
	<g>
		<path class="st2" d="M79.6,17c-0.5,1.1-0.9,2.3-1.4,3.4c-3,6.6-6.9,12.7-11.7,18.3c-1.5,1.7-3,3.2-4.9,4.4c-3.3,2-6.6,2-9.9-0.2
			c-2.1-1.4-3.8-3.3-5.2-5.4c-3.3-4.7-5.4-9.9-6.5-15.5c-0.1-0.4-0.1-0.9-0.1-1.3c0-0.4-0.1-0.9,0.4-1.2c0.4-0.2,0.8,0.1,1.1,0.3
			c0.7,0.4,1.2,0.9,1.8,1.5c0.5,0.5,1,1.1,1.4,1.6c4.9,6.3,12.6,8.5,20.8,5c4.1-1.8,7.5-4.5,10.7-7.6c1.1-1.1,2.2-2.3,3.3-3.4
			C79.4,16.9,79.5,17,79.6,17z"/>
		<path class="st2" d="M57.1,94.9c-2.4-6.6-3.4-13.5-3.1-20.5c0.1-2.5,0.3-4.9,1-7.3c0.1-0.5,0.3-0.9,0.5-1.4
			c1.7-4.1,5.1-5.8,9.4-4.7c1.7,0.4,3.3,1.3,4.9,2.1c4,2.2,8,4.6,12.2,6.6c1.1,0.5,2.2,1.3,3,2.2c0.2,0.3,0.5,0.5,0.3,0.9
			c-0.2,0.4-0.6,0.4-0.9,0.3c-2.1-0.1-4.2-0.3-6.3-0.4c-3.1-0.2-6.2-0.4-9.3-0.1c-5.8,0.6-9.6,3.7-11.3,9.3c-1.1,3.7-1,7.4-0.6,11.1
			c0,0.4,0.1,0.9,0.1,1.3C57.2,94.6,57.1,94.8,57.1,94.9z"/>
		<path class="st2" d="M86.9,34.2c-0.8,1-1.6,2-2.4,3c-5,6.6-4.8,13.6,0.3,20.1c2.5,3.1,5.7,5.4,9.1,7.5c1.5,0.9,3.1,1.8,4.7,2.7
			l0,0c-1.6-0.1-3-0.7-4.5-1.1c-8.2-2.4-16-5.6-23.5-9.7c-1.1-0.6-2.2-1.3-3.1-2.3c-1.8-1.9-1.9-4-0.5-6.1c1.2-1.7,2.7-3.1,4.2-4.4
			c3.9-3.4,8.1-6.4,12.7-8.8C84.9,34.6,85.8,34.1,86.9,34.2L86.9,34.2z"/>
		<path class="st2" d="M44.5,93.5c0.2-3.6-0.3-7.1-1.5-10.5c-1.1-3.2-2.8-6.1-5.2-8.4c-1.9-1.8-4.2-3.1-6.4-4.4
			c-4.5-2.5-9.2-3.7-14.5-3c0.5-0.8,1.3-1.3,2-1.6c1.1-0.5,2.3-0.8,3.5-1c4.6-0.9,9.2-2,14-2.4c2.1-0.2,4.3-0.4,6.4-0.3
			c3.2,0.2,5.4,2.2,5.7,5.4c0.3,2.4-0.2,4.8-0.6,7.2c-1.1,6-2.1,12-3.2,18C44.7,92.8,44.6,93.2,44.5,93.5z"/>
		<path class="st2" d="M12.6,58.7c2.5-0.6,5-1,7.4-1.8c2.9-0.9,5.7-2.2,8.2-4.1c4.5-3.6,6.1-8.3,5.5-13.9c-0.3-3-1.4-5.7-2.7-8.4
			c-0.6-1.3-1.3-2.7-1.7-4.2c1.4,0.5,2.3,1.4,3.1,2.3c2.4,2.8,4.7,5.6,7,8.4c1.6,1.9,3.2,3.7,4.6,5.6c1.4,1.9,2.4,3.9,2.4,6.3
			c0,2.7-1.2,4.6-3.5,5.9c-2.1,1.1-4.4,1.5-6.7,1.7c-7.3,0.7-14.6,1.4-21.8,2C13.7,58.6,13.2,58.6,12.6,58.7z"/>
		<path class="st2" d="M90.2,53.8c-2.2,0-3.9-1.7-3.9-3.9c0-2.2,1.8-3.9,3.9-4c2.2,0,4,1.8,4,4C94.1,52.1,92.3,53.8,90.2,53.8z"/>
		<path class="st2" d="M54.3,20.5c0-2.2,1.8-3.9,4-3.9c2.2,0,3.9,1.8,3.9,4c0,2.2-1.8,3.9-4,3.9C56,24.5,54.3,22.7,54.3,20.5z"/>
		<path class="st2" d="M69.9,79.7c2.1,0,3.9,1.7,3.9,3.9c0,2.1-1.7,3.9-3.9,3.9c-2.1,0-3.9-1.7-3.9-3.9C66,81.4,67.8,79.7,69.9,79.7
			z"/>
		<path class="st2" d="M25.3,39.3c2.2,0,3.9,1.7,3.9,3.8c0,2.1-1.7,3.8-3.8,3.9c-2.1,0-3.9-1.7-3.9-3.9C21.5,41,23.2,39.3,25.3,39.3
			z"/>
		<path class="st2" d="M37.2,79.9c0,2.1-1.7,3.7-3.8,3.7c-2.1,0-3.8-1.7-3.8-3.8c0-2.1,1.8-3.8,3.9-3.8
			C35.6,76.1,37.2,77.8,37.2,79.9z"/>
		<path class="st2" d="M98.6,67.4c0.1,0,0.1,0,0.2,0.1c0,0,0,0-0.1,0C98.7,67.5,98.6,67.5,98.6,67.4C98.6,67.4,98.6,67.4,98.6,67.4z
			"/>
		<path class="st2" d="M86.9,34.2c0,0,0-0.1,0-0.1C87,34.1,87,34.1,86.9,34.2C87,34.1,86.9,34.2,86.9,34.2
			C86.9,34.2,86.9,34.2,86.9,34.2z"/>
	</g>
</g>
</svg>
