<?xml version="1.0" encoding="utf-8"?>
<!-- Generator: Adobe Illustrator 24.0.2, SVG Export Plug-In . SVG Version: 6.00 Build 0)  -->
<svg version="1.1" id="Layer_1" xmlns="http://www.w3.org/2000/svg" xmlns:xlink="http://www.w3.org/1999/xlink" x="0px" y="0px"
	 viewBox="0 0 111 111" style="enable-background:new 0 0 111 111;" xml:space="preserve">
<style type="text/css">
	.st0{fill:#FFCE0C;}
	.st1{fill:#DD2528;}
	.st2{fill:#FFFFFF;}
</style>
<g>
	<path class="st0" d="M111.5,55.8c0,6.1-1,12-2.8,17.5c-0.2,0.6-0.4,1.2-0.6,1.8c-5.3,14.5-16.5,26.1-30.6,32.1
		c-0.5,0.2-1,0.4-1.5,0.6c-6.3,2.5-13.2,3.8-20.4,3.8c-30.9,0-55.9-25-55.9-55.9c0-30.9,25-55.9,55.9-55.9
		C86.4-0.1,111.5,24.9,111.5,55.8z"/>
	<path class="st1" d="M106.6,55.8c0,5.6-0.9,11-2.6,16c-4.8,14.4-15.8,26-29.9,31.5c-5.8,2.3-12,3.5-18.6,3.5c-28.2,0-51-22.8-51-51
		s22.8-51,51-51C83.7,4.8,106.6,27.6,106.6,55.8z"/>
	<g>
		<path class="st2" d="M50.9,67.2c1.7,4.5,3.4,8.8,5,13.1c1.1,2.9,0.9,3.4-2,4.2c-5.2,1.5-3.9,1.8-7.3-2.2
			c-3.4-4.1-6.8-8.3-10.2-12.5c-0.7-0.8-1.3-1.1-2.3-0.7c-1.2,0.4-2.4,0.8-3.6,0.9c-4,0.5-7.8-2.2-8.6-6.1c-0.9-3.9,1.3-7.5,5-9.2
			c5.4-2.4,10.8-4.9,15.9-7.7c7.7-4.3,14.4-10,20.1-16.8c0.5-0.6,1.4-1.2,2.1-1.1c0.6,0.1,1.3,1,1.5,1.7c1,3.1,1.9,6.3,2.8,9.4
			c0.3,1,0.6,1.5,1.8,1.7c3.6,0.6,5.4,3.1,6.3,6.4c0.9,3.2,0.3,5.9-2,8.3c-0.4,0.5-0.6,1.5-0.5,2.2c0.8,3,1.8,6,2.6,9
			c0.2,0.7,0.2,1.9-0.2,2.3c-0.5,0.4-1.7,0.5-2.4,0.3C67.1,68.2,59.3,67,50.9,67.2z M34.5,55.3c0.9,2.8,1.9,5.3,2.5,7.9
			c0.5,1.9,1.4,2.1,3.1,1.8c8.2-1.1,16.3-1.2,24.5,0.2c2.9,0.5,5.7,1.1,8.8,1.6C70.1,56,67,45.3,63.7,34.4
			C55.4,43.5,45.8,50.4,34.5,55.3z M39.5,68c3.8,4.7,7.2,9,10.8,13.1c0.4,0.5,1.5,0.3,2.6,0.5c-1.8-4.8-3.4-9.1-5.1-13.2
			c-0.2-0.5-1-0.9-1.6-0.9C44.1,67.6,42,67.8,39.5,68z M31.6,56.9c-2.9,0.8-5.9,1.1-6.6,4.5c-0.4,1.9,0.3,3.6,2,4.7
			c2.5,1.6,4.7,0.1,7-0.6C33.2,62.5,32.5,59.8,31.6,56.9z M70.9,45.4c0.9,2.9,1.7,5.5,2.5,8.3C75.3,50.7,74.2,46.9,70.9,45.4z"/>
		<path class="st2" d="M81.4,48.3c-0.4-0.4-1.3-0.9-1.3-1.4c0-0.7,0.6-1.8,1.2-2.1c2.7-1,5.5-1.7,8.2-2.5c1.4-0.4,2.9-1,4.3-1.2
			c0.6-0.1,1.7,0.5,1.8,1c0.1,0.6-0.3,1.9-0.8,2.1C90.5,45.6,86.1,46.9,81.4,48.3z"/>
		<path class="st2" d="M77.3,42c-1.7-0.1-2.5-1.3-1.7-2.5C78,35.8,80.5,32,83,28.4c0.3-0.4,1.7-0.6,2.2-0.3c0.5,0.3,0.8,1.7,0.5,2.1
			c-2.3,3.8-4.8,7.5-7.3,11.2C78.1,41.8,77.5,41.9,77.3,42z"/>
		<path class="st2" d="M80.8,52.2c0.8,0.3,1.3,0.4,1.7,0.6c3.5,1.5,6.9,3,10.4,4.5c1.1,0.5,2.3,1.1,1.7,2.6c-0.6,1.5-1.9,1.1-3,0.6
			c-3.7-1.6-7.3-3.1-10.9-4.8c-0.6-0.3-1.1-1.4-1.2-2.1C79.6,53.1,80.4,52.6,80.8,52.2z"/>
	</g>
</g>
</svg>
