<?xml version="1.0" encoding="utf-8"?>
<!-- Generator: Adobe Illustrator 24.0.2, SVG Export Plug-In . SVG Version: 6.00 Build 0)  -->
<svg version="1.1" id="Layer_1" xmlns="http://www.w3.org/2000/svg" xmlns:xlink="http://www.w3.org/1999/xlink" x="0px" y="0px"
	 viewBox="0 0 267 150" style="enable-background:new 0 0 267 150;" xml:space="preserve">
<style type="text/css">
	.st0{fill:#412312;}
	.st1{fill:none;stroke:#412312;stroke-miterlimit:10;}
	.st2{fill:#D8CFC6;}
	.st3{fill:none;stroke:#412312;stroke-width:2;stroke-miterlimit:10;}
	.st4{fill:none;stroke:#412312;stroke-width:1.5;stroke-miterlimit:10;}
</style>
<g>
	<g>
		<g>
			<circle class="st0" cx="15.9" cy="133.8" r="15"/>
		</g>
		<g>
			<circle class="st0" cx="251.1" cy="133.8" r="15"/>
		</g>
		<line class="st4" x1="17.5" y1="133.8" x2="249.5" y2="133.8"/>
	</g>
	<path class="st0" d="M201.6,133.8H69.1V67.5c0-36.6,29.7-66.3,66.3-66.3h0c36.6,0,66.3,29.7,66.3,66.3V133.8z"/>
	<g>
		<path class="st2" d="M131.1,113.9c-0.4-0.3-0.8-0.2-1.1-0.2c-4.8,0-9.7,0-14.5,0c-2.3,0-3.1-1.1-2.6-3.3c1.2-4.6,2.3-9.3,3.5-13.9
			c0.2-0.8,0.1-1.2-0.8-1.5c-4-1.3-7.2-3.5-9.2-7.3c-1.3-2.5-1.9-5.2-2-8c-0.2-5.6,0.7-11.1,3.2-16.2c2-4.1,4.7-7.6,7.8-10.8
			c4.1-4.1,8.8-7.5,13.7-10.6c1-0.6,1-0.7,0.1-1.5c-6.1-5-5-14.4,2.1-17.7c4.7-2.2,10.5-0.4,13.3,4c2.8,4.5,1.7,10.5-2.4,13.7
			c-0.1,0.1-0.1,0.1-0.2,0.2c-0.7,0.4-0.8,0.7,0,1.2c2.5,1.5,4.9,3.1,7.2,4.9c5.3,4,10.1,8.5,13.4,14.4c3.7,6.6,5.1,13.7,4.1,21.2
			c-0.9,6.5-4.8,10.7-11.1,12.7c-0.7,0.2-0.9,0.5-0.7,1.2c1.3,4.9,2.5,9.8,3.7,14.6c0.3,1.4-0.5,2.6-1.9,2.7c-0.6,0.1-1.2,0-1.8,0
			c-4.6,0-9.1,0-13.7,0c-0.3,0-0.8-0.2-0.9,0.2c-0.1,0.4,0.4,0.5,0.6,0.6c4.5,2.7,9.3,3.6,14.4,3.1c3.2-0.3,6.2-1.3,9.1-2.3
			c1.8-0.6,3.7-1.1,5.7-1.5c3.9-0.8,7.3,0.5,10.4,2.8c0.7,0.5,1.4,1,2,1.6c1,0.9,1.2,2.2,0.4,3.1c-0.8,0.9-2.1,1-3.2,0.1
			c-0.6-0.5-1.3-1-1.9-1.5c-2.8-2.2-5.9-2.4-9.1-1.4c-3,0.9-5.9,2-9,2.7c-7.3,1.7-14.3,0.9-20.8-2.8c-1-0.6-1.9-1.3-2.7-2.1
			c-0.4-0.4-0.7-0.6-1.1-0.1c-3.3,3.2-7.3,4.6-11.7,5.4c-5,0.9-9.9,0.4-14.7-1.2c-2.1-0.7-4.2-1.4-6.3-2c-3.7-1.1-7-0.4-9.9,2.1
			c-0.4,0.3-0.8,0.7-1.2,1c-1.1,0.8-2.3,0.7-3.1-0.2c-0.7-0.9-0.6-2.1,0.3-3c4.5-4.1,9.6-5.8,15.6-3.8c2.5,0.9,5.1,1.7,7.6,2.4
			c5.8,1.6,11.4,1.2,16.8-1.3C129.4,115.1,130.3,114.6,131.1,113.9z M136.3,92.7c2.7,0,6.1,0,9.5-0.2c2.7-0.2,5.3-0.5,7.9-1.2
			c4.6-1.3,7.8-4,8.6-8.9c0.6-3.5,0.4-6.9-0.3-10.4c-1.2-6.3-4.5-11.4-8.9-15.9c-4.5-4.6-9.8-8.2-15.2-11.6c-1.7-1.1-3-1.1-4.7,0
			c-6.2,3.9-12.1,7.9-17,13.5c-6,6.9-8.6,14.9-7.4,24c0.3,2.3,1.2,4.5,2.9,6.1c2.7,2.7,6.3,3.5,9.9,4
			C126.3,92.8,130.9,92.7,136.3,92.7z M135.5,109.5C135.5,109.5,135.5,109.5,135.5,109.5c5.8,0,11.6,0,17.4,0c0.7,0,0.9-0.2,0.7-0.9
			c-0.9-3.6-1.9-7.2-2.7-10.9c-0.2-0.6-0.5-0.8-1.1-0.8c-9.4,0-18.8,0-28.2,0c-0.7,0-1,0.2-1.2,0.9c-0.9,3.5-1.7,7.1-2.7,10.6
			c-0.2,0.9,0,1,0.8,1C124.2,109.4,129.8,109.5,135.5,109.5z M135.5,38.6c3.5,0,6.3-2.8,6.3-6.2c0-3-2.4-6.2-6.3-6.2
			c-3.4,0.1-6.2,2.7-6.2,6.1C129.3,35.8,132.1,38.6,135.5,38.6z"/>
		<path class="st2" d="M137.7,68.2c0,1.2,0,2.3,0,3.5c0,1.4-0.9,2.4-2.1,2.4c-1.2,0-2.1-1-2.1-2.3c0-2.4,0-4.7,0-7.1
			c0-0.7-0.2-1-1-0.9c-1.1,0-2.1,0-3.2,0c-1,0-1.7-0.6-2-1.6c-0.3-0.9,0.1-1.7,0.8-2.2c0.4-0.3,0.8-0.4,1.3-0.4c1.1,0,2.1,0,3.2,0
			c0.6,0,0.9-0.2,0.9-0.8c0-1,0-2.1,0-3.1c0-1.4,0.9-2.3,2.1-2.3c1.2,0,2.1,0.9,2.1,2.3c0,1,0,2.1,0,3.1c0,0.6,0.2,0.9,0.8,0.8
			c1.1,0,2.1,0,3.2,0c1.2,0,2.1,0.8,2.2,1.9c0.1,1.2-0.7,2.1-2,2.2c-1.2,0.1-2.3,0.1-3.5,0.1c-0.6,0-0.8,0.2-0.8,0.8
			C137.7,65.8,137.7,67,137.7,68.2z"/>
	</g>
</g>
</svg>
