<?xml version="1.0" encoding="utf-8"?>
<!-- Generator: Adobe Illustrator 24.0.2, SVG Export Plug-In . SVG Version: 6.00 Build 0)  -->
<svg version="1.1" id="Layer_1" xmlns="http://www.w3.org/2000/svg" xmlns:xlink="http://www.w3.org/1999/xlink" x="0px" y="0px"
	 viewBox="0 0 267 150" style="enable-background:new 0 0 267 150;" xml:space="preserve">
<style type="text/css">
	.st0{fill:#412312;}
	.st1{fill:none;stroke:#412312;stroke-miterlimit:10;}
	.st2{fill:#D8CFC6;}
	.st3{fill:none;stroke:#412312;stroke-width:2;stroke-miterlimit:10;}
	.st4{fill:none;stroke:#412312;stroke-width:1.5;stroke-miterlimit:10;}
</style>
<g>
	<g>
		<path class="st0" d="M142.8,115.8c0-1,0-1.9,0-2.7c0-5.6,0-11.2,0-16.9c0-4.3-3.1-7.6-7.2-7.6c-4.1,0-7.3,3.3-7.3,7.5
			c0,6.2,0,12.4,0,18.6c0,0.8-0.2,1.1-1,1c-5.7,0-11.4,0-17,0c-0.3,0-0.5,0-0.9,0c0-0.4,0-0.6,0-0.9c0-12,0-23.9,0-35.9
			c0-0.6,0.2-1,0.6-1.4c8.4-7.4,16.8-14.7,25.1-22.1c0.1-0.1,0.3-0.2,0.5-0.4c1.3,1.2,2.6,2.3,3.9,3.5c7.2,6.3,14.4,12.7,21.6,19
			c0.4,0.4,0.6,0.8,0.6,1.4c0,12,0,23.9,0,35.9c0,0.8-0.2,1-1,1c-5.6,0-11.3,0-16.9,0C143.6,115.8,143.2,115.8,142.8,115.8z"/>
		<path class="st0" d="M137.2,31.3c0,1.4,0,2.8,0,4.1c0,0.7,0.2,0.8,0.8,0.8c1.2,0,2.5,0,3.7,0c0.6,0,0.8,0.2,0.7,0.7
			c-0.1,0.8,0.2,1.8-0.2,2.2c-0.4,0.4-1.5,0.2-2.2,0.2c-0.8,0-1.5,0-2.3,0c-0.4,0-0.6,0.2-0.6,0.6c0,1.9,0,3.8,0,5.7
			c0,0.3,0.3,0.7,0.5,0.9c5.9,5.3,11.8,10.6,17.7,15.9c5.1,4.6,10.3,9.2,15.4,13.8c0.2,0.2,0.4,0.4,0.6,0.6
			c-1.3,1.4-2.5,2.8-3.7,4.2c-10.7-9.6-21.4-19.1-32.2-28.7c-10.7,9.6-21.5,19.1-32.2,28.7c-1.2-1.4-2.4-2.7-3.8-4.3
			c0.2-0.1,0.5-0.3,0.7-0.4c11-9.8,21.9-19.5,32.9-29.3c0.6-0.5,0.9-1.1,0.8-1.9c-0.1-1.9,0-3.8,0-5.8c-1.8,0-3.6,0-5.5,0
			c0-1.1,0-2.1,0-3.2c1.8,0,3.6,0,5.5,0c0-1.7,0-3.3,0-5C135.1,31.3,136.1,31.3,137.2,31.3z"/>
		<path class="st0" d="M107.5,115.8c-0.3,0-0.5,0-0.8,0c-3.5,0-7,0-10.5,0c-0.6,0-0.8-0.1-0.8-0.8c0-4.7,0-9.4,0-14.1
			c0-0.6,0.2-0.9,0.6-1.3c3.6-3.1,7.2-6.3,10.8-9.5c0.2-0.2,0.4-0.3,0.7-0.6C107.5,98.4,107.5,107,107.5,115.8z"/>
		<path class="st0" d="M163.7,115.7c0-8.7,0-17.3,0-26.1c0.3,0.2,0.4,0.3,0.6,0.4c3.7,3.2,7.3,6.4,11,9.6c0.3,0.2,0.5,0.6,0.5,0.9
			c0,5,0,9.9,0,14.9c0,0.1,0,0.1-0.1,0.2C171.7,115.7,167.7,115.7,163.7,115.7z"/>
	</g>
	<g>
		<g>
			<circle class="st0" cx="15.9" cy="133.8" r="15"/>
		</g>
		<g>
			<circle class="st0" cx="251.1" cy="133.8" r="15"/>
		</g>
		<line class="st1" x1="17.5" y1="133.8" x2="249.5" y2="133.8"/>
	</g>
	<path class="st3" d="M201.6,133.8H69.1V67.5c0-36.6,29.7-66.3,66.3-66.3h0c36.6,0,66.3,29.7,66.3,66.3V133.8z"/>
</g>
</svg>
