<?xml version="1.0" encoding="utf-8"?>
<!-- Generator: Adobe Illustrator 24.0.2, SVG Export Plug-In . SVG Version: 6.00 Build 0)  -->
<svg version="1.1" id="Layer_1" xmlns="http://www.w3.org/2000/svg" xmlns:xlink="http://www.w3.org/1999/xlink" x="0px" y="0px"
	 viewBox="0 0 770.3 96.8" style="enable-background:new 0 0 770.3 96.8;" xml:space="preserve">
<style type="text/css">
	.st0{fill:#412312;}
</style>
<g>
	<path class="st0" d="M686.6,72H90.4c-17.5,0-31.6-14.2-31.6-31.6v0c0-17.5,14.2-31.6,31.6-31.6h596.1c17.5,0,31.6,14.2,31.6,31.6v0
		C718.2,57.9,704,72,686.6,72z"/>
	<g>
		<g>
			<g>
				<g>
					<g>
						<path class="st0" d="M713.5,33.7c-0.2-5.4-0.8-10.4,4.1-13.7c3-2,7.5-1.9,9.6-5.2c3,8.4-8,6.6-8.3,11.9
							c1.2-2.5,3.9-2.2,6.3-2.6c0.2-0.1,0.2-0.1,0,0c-2.1,4.5-6.5,4-10,7L713.5,33.7z"/>
						<path class="st0" d="M712.2,32.2c-0.5-9.5,1.6-12.5,10.1-16.8c11.2-5.7-3.5-8.7-1.9-3.6c0.4,0.2,0.8,0.4,1.1,0.6
							c0.1-0.2,0.7-0.1,0.9-0.1c0.1-0.6,0.6-1.4,0.6-1.8c0,0,1.2,0.3,1.1,0.3c1.1,3.4-4,3.9-6.1,5.4c-2.7,1.8-4.5,4.7-5.6,7.6
							L712.2,32.2z"/>
					</g>
					<path class="st0" d="M713.3,37.5c2.1-5.3,3.3-10.5,8.4-13c4.2-2.1,9.3-1.4,13.7-1.5c-3.9,0.4-7.9,2.8-8.4,6.8
						c3.9-3.1,10.1-3.2,14.9-1.7c5.5,1.8,8.6,7.8,14.7,9.1c5.5,1.2,12.2-1.8,10.5-8.1c-2.4-8.9-12.6-1.4-6.5,1.4
						c2.5-2.9,4.4,2,0.9,2.6c-3.6,0.7-6.5-4.1-5.7-6.7c2.3-7.5,14-1.9,14.4,4.2c0.4,5.8-8.9,10.4-14,10.2c-7.3-0.4-12.1-8-19.6-6.9
						c3.6,0.7,8.3,6.3,12.6,8c-5.8,3.1-10.9-0.4-15.6-3.3c-6.5-4-11.4-2.7-17.6-3.1L713.3,37.5z"/>
				</g>
				<g>
					<g>
						<path class="st0" d="M716.2,34.7c5.4-0.2,10.4-0.8,13.7,4.1c2,3,1.9,7.5,5.2,9.6c-8.4,3-6.6-8-11.9-8.3
							c2.5,1.2,2.2,3.9,2.6,6.3c0.1,0.2,0.1,0.2,0,0c-4.5-2.1-4-6.5-7-10L716.2,34.7z"/>
						<path class="st0" d="M717.7,33.4c9.5-0.5,12.5,1.6,16.8,10.1c5.7,11.2,8.7-3.5,3.6-1.9c-0.2,0.4-0.4,0.8-0.6,1.1
							c0.2,0.1,0.1,0.7,0.1,0.9c0.6,0.1,1.4,0.5,1.8,0.6c0,0-0.3,1.2-0.3,1.1c-3.4,1.1-3.9-4-5.4-6.1c-1.8-2.7-4.7-4.5-7.6-5.6
							L717.7,33.4z"/>
					</g>
					<path class="st0" d="M712.4,34.5c5.3,2.1,10.5,3.3,13,8.4c2.1,4.2,1.4,9.3,1.5,13.7c-0.4-3.9-2.8-7.9-6.8-8.4
						c3.1,3.9,3.2,10.1,1.7,14.9c-1.8,5.5-7.8,8.6-9.1,14.7c-1.2,5.5,1.8,12.2,8.1,10.5c8.9-2.4,1.4-12.6-1.4-6.5
						c2.9,2.5-2,4.4-2.6,0.9c-0.7-3.6,4.1-6.5,6.7-5.7c7.5,2.3,1.9,14-4.2,14.4c-5.8,0.4-10.4-8.9-10.2-14c0.3-7.3,8-12.1,6.9-19.6
						c-0.7,3.6-6.3,8.3-8,12.6c-3.1-5.8,0.4-10.9,3.2-15.6c4-6.5,2.7-11.4,3.1-17.6L712.4,34.5z"/>
				</g>
			</g>
		</g>
		<g>
			<g>
				<g>
					<g>
						<path class="st0" d="M62.9,33.7c0.2-5.4,0.8-10.4-4.1-13.7c-3-2-7.5-1.9-9.6-5.2c-3,8.4,8,6.6,8.3,11.9
							c-1.2-2.5-3.9-2.2-6.3-2.6c-0.2-0.1-0.2-0.1,0,0c2.1,4.5,6.5,4,10,7L62.9,33.7z"/>
						<path class="st0" d="M64.2,32.2c0.5-9.5-1.6-12.5-10.1-16.8c-11.2-5.7,3.5-8.7,1.9-3.6c-0.4,0.2-0.8,0.4-1.1,0.6
							c-0.1-0.2-0.7-0.1-0.9-0.1c-0.1-0.6-0.6-1.4-0.6-1.8c0,0-1.2,0.3-1.1,0.3c-1.1,3.4,4,3.9,6.1,5.4c2.7,1.8,4.5,4.7,5.6,7.6
							L64.2,32.2z"/>
					</g>
					<path class="st0" d="M63.2,37.5c-2.1-5.3-3.3-10.5-8.4-13c-4.2-2.1-9.3-1.4-13.7-1.5c3.9,0.4,7.9,2.8,8.4,6.8
						c-3.9-3.1-10.1-3.2-14.9-1.7c-5.5,1.8-8.6,7.8-14.7,9.1C14.4,38.2,7.6,35.3,9.3,29c2.4-8.9,12.6-1.4,6.5,1.4
						c-2.5-2.9-4.4,2-0.9,2.6c3.6,0.7,6.5-4.1,5.7-6.7c-2.3-7.5-14-1.9-14.4,4.2c-0.4,5.8,8.9,10.4,14,10.2c7.3-0.4,12.1-8,19.6-6.9
						c-3.6,0.7-8.3,6.3-12.6,8c5.8,3.1,10.9-0.4,15.6-3.3c6.5-4,11.4-2.7,17.6-3.1L63.2,37.5z"/>
				</g>
				<g>
					<g>
						<path class="st0" d="M60.3,34.7c-5.4-0.2-10.4-0.8-13.7,4.1c-2,3-1.9,7.5-5.2,9.6c8.4,3,6.6-8,11.9-8.3
							c-2.5,1.2-2.2,3.9-2.6,6.3c-0.1,0.2-0.1,0.2,0,0c4.5-2.1,4-6.5,7-10L60.3,34.7z"/>
						<path class="st0" d="M58.8,33.4C49.3,32.9,46.3,35,42,43.5c-5.7,11.2-8.7-3.5-3.6-1.9c0.2,0.4,0.4,0.8,0.6,1.1
							c-0.2,0.1-0.1,0.7-0.1,0.9c-0.6,0.1-1.4,0.5-1.8,0.6c0,0,0.3,1.2,0.3,1.1c3.4,1.1,3.9-4,5.4-6.1c1.8-2.7,4.7-4.5,7.6-5.6
							L58.8,33.4z"/>
					</g>
					<path class="st0" d="M64,34.5c-5.3,2.1-10.5,3.3-13,8.4c-2.1,4.2-1.4,9.3-1.5,13.7c0.4-3.9,2.8-7.9,6.8-8.4
						c-3.1,3.9-3.2,10.1-1.7,14.9c1.8,5.5,7.8,8.6,9.1,14.7c1.2,5.5-1.8,12.2-8.1,10.5c-8.9-2.4-1.4-12.6,1.4-6.5
						c-2.9,2.5,2,4.4,2.6,0.9c0.7-3.6-4.1-6.5-6.7-5.7c-7.5,2.3-1.9,14,4.2,14.4c5.8,0.4,10.4-8.9,10.2-14c-0.3-7.3-8-12.1-6.9-19.6
						c0.7,3.6,6.3,8.3,8,12.6c3.1-5.8-0.4-10.9-3.2-15.6c-4-6.5-2.7-11.4-3.1-17.6L64,34.5z"/>
				</g>
			</g>
		</g>
	</g>
</g>
</svg>
