<?xml version="1.0" encoding="utf-8"?>
<!-- Generator: Adobe Illustrator 24.0.2, SVG Export Plug-In . SVG Version: 6.00 Build 0)  -->
<svg version="1.1" id="Layer_1" xmlns="http://www.w3.org/2000/svg" xmlns:xlink="http://www.w3.org/1999/xlink" x="0px" y="0px"
	 viewBox="0 0 267 150" style="enable-background:new 0 0 267 150;" xml:space="preserve">
<style type="text/css">
	.st0{fill:#412312;}
	.st1{fill:none;stroke:#412312;stroke-miterlimit:10;}
	.st2{fill:#D8CFC6;}
	.st3{fill:none;stroke:#412312;stroke-width:2;stroke-miterlimit:10;}
	.st4{fill:none;stroke:#412312;stroke-width:1.5;stroke-miterlimit:10;}
</style>
<g>
	<g>
		<g>
			<circle class="st0" cx="15.9" cy="134.2" r="15"/>
		</g>
		<g>
			<circle class="st0" cx="251.1" cy="134.2" r="15"/>
		</g>
		<line class="st1" x1="17.5" y1="134.2" x2="249.5" y2="134.2"/>
	</g>
	<path class="st0" d="M203.9,133.3H71.4V67.1c0-36.6,29.7-66.3,66.3-66.3h0c36.6,0,66.3,29.7,66.3,66.3V133.3z"/>
	<g>
		<path class="st2" d="M130.6,112.3c-10.6,0-21.3,0-31.9,0c-5.5,0-9.5-4.1-9.5-9.6c0-15.8,0-31.7,0-47.5c0-3.7,1.4-6.7,4.4-8.8
			c1.4-1,3.1-1.5,4.8-1.5c0.9,0,1.9,0,2.8,0c0.5,0,0.7-0.2,0.7-0.7c0.3-3,0.7-6,1.1-9c0.7-4.9,5.4-8.5,10.4-8
			c10.3,1.2,20.6,2.3,30.9,3.5c10.9,1.2,21.8,2.5,32.6,3.7c4.9,0.6,8.4,3.6,9.1,8.3c0.2,1.4,0.1,2.9-0.1,4.3c-1,8.8-2,17.5-3,26.3
			c-0.8,6.6-1.5,13.2-2.3,19.8c-0.5,3.6-2.7,6.8-7.1,8c-0.6,0.1-0.7,0.4-0.7,0.9c0.5,6.2-5,10.4-10.4,10.4
			C151.8,112.2,141.2,112.3,130.6,112.3C130.6,112.3,130.6,112.3,130.6,112.3z M94.5,87.5c0.3-0.2,0.5-0.3,0.7-0.5
			c4.6-3.4,9.2-6.7,13.8-10.1c4.7-3.4,10-3.2,14.3,0.7c4,3.6,8.1,7.1,12.1,10.7c2,1.8,4.5,2,6.8,0.7c8.2-4.8,16.5-9.6,24.7-14.4
			c0.4-0.2,0.6-0.5,0.6-0.9c0-6.2,0-12.3,0-18.5c0-2.9-2.2-5-5.1-5.1c-21.3,0-42.5,0-63.8,0c-1.5,0-2.6,0.7-3.4,2
			c-0.6,0.9-0.8,2-0.8,3.1c0,10.5,0,20.9,0,31.4C94.5,86.9,94.5,87.1,94.5,87.5z M167.5,80.7c-0.4,0.2-0.6,0.3-0.8,0.4
			c-7.2,4.2-14.4,8.3-21.6,12.5c-4.4,2.6-9.5,2.1-13.3-1.3c-4.2-3.7-8.3-7.4-12.5-11c-2-1.7-4.6-1.8-6.7-0.3
			c-5.8,4.3-11.7,8.6-17.5,12.9c-0.4,0.3-0.5,0.6-0.5,1.1c0,2.6,0,5.1,0,7.7c0,2.6,1.6,4.2,4.2,4.2c21.2,0,42.3,0,63.5,0
			c0.3,0,0.5,0,0.8,0c2.8-0.1,4.6-2,4.6-4.8c0-6.8,0-13.6,0-20.5C167.5,81.4,167.5,81.1,167.5,80.7z M107.2,44.8c0.4,0,0.7,0,1,0
			c18,0,36.1,0,54.1,0c6.1,0,10.7,4.5,10.7,10.7c0,13,0,26.1,0,39.1c0,0.3,0,0.5,0,0.9c1.5-0.7,2.2-1.8,2.4-3.3
			c0.3-2.5,0.5-4.9,0.8-7.4c0.8-6.7,1.6-13.5,2.4-20.2c0.7-6,1.4-12.1,2.1-18.1c0.1-1.1,0.3-2.2,0.1-3.3c-0.3-2-1.9-3.3-4.4-3.6
			c-5.6-0.6-11.1-1.3-16.7-1.9c-6.8-0.8-13.6-1.6-20.4-2.4c-6.4-0.7-12.8-1.5-19.2-2.2c-2.3-0.3-4.7-0.6-7-0.8
			c-2.7-0.2-4.6,1.5-4.9,4.2c-0.1,0.6-0.1,1.2-0.2,1.8C107.7,40.6,107.5,42.6,107.2,44.8z"/>
		<path class="st2" d="M138.3,77.2c-5.6,0-10.2-4.5-10.2-10.2c0-5.6,4.5-10.2,10.2-10.2c5.6,0,10.2,4.6,10.2,10.2
			C148.5,72.7,143.9,77.2,138.3,77.2z M133.5,67.1c0,2.7,2.1,4.8,4.8,4.8c2.7,0,4.8-2.2,4.8-4.8c0-2.6-2.2-4.8-4.8-4.8
			C135.7,62.3,133.5,64.4,133.5,67.1z"/>
	</g>
</g>
</svg>
