<?xml version="1.0" encoding="utf-8"?>
<!-- Generator: Adobe Illustrator 24.0.2, SVG Export Plug-In . SVG Version: 6.00 Build 0)  -->
<svg version="1.1" id="Layer_1" xmlns="http://www.w3.org/2000/svg" xmlns:xlink="http://www.w3.org/1999/xlink" x="0px" y="0px"
	 viewBox="0 0 267 150" style="enable-background:new 0 0 267 150;" xml:space="preserve">
<style type="text/css">
	.st0{fill:#412312;}
	.st1{fill:none;stroke:#412312;stroke-miterlimit:10;}
	.st2{fill:#D8CFC6;}
	.st3{fill:none;stroke:#412312;stroke-width:2;stroke-miterlimit:10;}
	.st4{fill:none;stroke:#412312;stroke-width:1.5;stroke-miterlimit:10;}
</style>
<g>
	<g>
		<g>
			<circle class="st0" cx="15.9" cy="134.2" r="15"/>
		</g>
		<g>
			<circle class="st0" cx="251.1" cy="134.2" r="15"/>
		</g>
		<line class="st1" x1="17.5" y1="134.2" x2="249.5" y2="134.2"/>
	</g>
	<path class="st0" d="M195.7,133.3H63.1V67.1c0-36.6,29.7-66.3,66.3-66.3h0c36.6,0,66.3,29.7,66.3,66.3V133.3z"/>
	<g>
		<path class="st2" d="M127.9,122.8c-7.3-0.1-14.6-0.3-21.8-2c-2.6-0.6-5.1-1.4-7.3-3.1c-0.4-0.3-1.2-0.3-1.8-0.4
			c-3.4-0.4-6.7-0.9-9.7-2.6c-2.7-1.5-4.1-3.7-3.9-6.8c0.7-12.7,6.6-22.1,17.5-28.6c3.4-2,7.1-3.4,11-4.4c0.6-0.2,1.2-0.6,1.5-1.1
			c2-2.7,2.2-5.7,2-8.9c0-0.1,0-0.3-0.1-0.4c-1-2.1-2.1-4.2-3.1-6.3c-0.1-0.2-0.3-0.4-0.5-0.6c-2.4-2.9-3.8-6-3.3-9.9
			c0.3-1.8-0.1-3.7,0.1-5.5c0.4-4.2,1.5-8.1,3.9-11.6c3.2-4.6,7.7-6.9,13.2-7.4c6.1-0.5,11.7,0.8,16,5.4c3.1,3.3,4.7,7.4,5.3,11.8
			c0.3,2.3,0.2,4.6,0.3,6.8c0,0.6,0.2,1.1,0.2,1.7c0.2,3.3-1.2,6-3.1,8.4c-0.4,0.5-0.8,1.1-1.1,1.8c-0.6,1.2-1,2.5-1.8,3.6
			c-1.4,1.9-1.2,4.1-1,6.2c0.1,1,0.5,2,0.9,3c0.7,1.8,1.9,2.9,3.9,3.4c10.2,2.9,18.3,8.5,23.4,18.1c2.4,4.5,3.6,9.4,3.8,14.5
			c0.1,3.1-1.3,5.2-3.8,6.6c-2.6,1.5-5.4,2.1-8.2,2.5c0,0-0.1,0-0.1,0c-1.9,0.2-3.7,0.6-5.4,1.7c-3,1.9-6.5,2.6-9.9,2.9
			c-5.7,0.6-11.4,1-17,1.5C127.9,122.9,127.9,122.9,127.9,122.8z M97.7,113.6c0-2.3,0-4.4,0-6.5c0-1.4,0.7-2.2,1.8-2.2
			c1.1,0,1.8,0.8,1.8,2.2c0,2.3,0,4.6,0,6.9c0,0.7,0.2,1.2,0.9,1.5c1.5,0.6,2.9,1.2,4.5,1.6c5.3,1.3,10.7,1.7,16.1,1.9
			c8.2,0.3,16.5,0.1,24.6-1.5c2-0.4,4-1.2,6-1.9c1-0.4,1.5-1.1,1.4-2.4c-0.1-2.1,0-4.3,0-6.5c0-1.1,0.8-1.9,1.8-1.9
			c1,0,1.7,0.8,1.8,1.9c0,0.5,0,1,0,1.4c0,1.8,0,3.5,0,5.3c0.7-0.1,1.3-0.1,1.8-0.2c2.2-0.6,4.5-1.1,6.7-2c1.6-0.6,2.3-1.9,2.2-3.7
			c-0.3-5.3-1.7-10.3-4.6-14.8c-4.8-7.6-11.9-12-20.4-14.4c-0.7-0.2-1.1,0-1.6,0.5c-3.1,3.7-6.2,7.3-9.3,10.9
			c-0.8,1-1.9,1.1-2.7,0.4c-0.8-0.7-0.8-1.7,0-2.7c0.4-0.5,0.9-1.1,1.4-1.6c2.7-3.2,5.5-6.4,8-9.4c-1.1-2.6-2.1-5.1-3.1-7.5
			c-5.7,5.1-11.7,5.1-17.4,0c-1,2.5-2,4.9-3,7.5c1.6,1.8,3.3,3.9,5.1,6c1.4,1.7,2.9,3.3,4.3,5c0.6,0.6,0.9,1.4,0.3,2.1
			c-0.4,0.5-1.1,0.9-1.7,0.9c-0.5,0-1.1-0.5-1.5-1c-3.1-3.6-6.2-7.1-9.2-10.7c-0.4-0.5-0.7-0.6-1.4-0.5c-3.4,1-6.7,2.2-9.7,4.1
			C93,88.2,87.8,96.4,87,107.3c-0.2,2.3,0.8,3.6,2.8,4.5C92.2,113,94.9,113.3,97.7,113.6z M131,38.6c-0.2,0.1-0.3,0.2-0.4,0.3
			c-4.8,4.4-10.4,7.2-17.1,7.3c-0.9,0-1.3,0.6-1.5,1.4c-0.7,3,0.4,5.4,2.3,7.6c0.5,0.6,1,1.3,1.4,2.1c1.4,3.3,3,6.4,5.6,8.9
			c4.3,4.3,8.9,4.3,13.3,0c2.6-2.6,4.3-5.7,5.7-9.1c0.3-0.7,0.7-1.3,1.2-1.8c1.9-2.2,3.1-4.7,2.4-7.7c-0.2-0.8-0.6-1.3-1.5-1.3
			c-4.2-0.1-7.2-2.2-9.6-5.4C132,40.1,131.6,39.4,131,38.6z M143.8,42.7c-0.8-5.7-2.3-11.1-7.7-14c-5.7-3.1-11.7-3-17.2,0.6
			c-4.7,3.1-6.1,8.2-6.8,13.5c1.3-0.1,2.4-0.1,3.5-0.2c5.8-0.7,10.3-3.6,14.2-7.8c1.4-1.5,2.6-1.3,3.5,0.5c0.4,0.8,0.8,1.6,1.3,2.3
			C136.7,40.7,139.4,43,143.8,42.7z"/>
		<path class="st2" d="M126.1,101.4c-1.1,0-2.1,0-3,0c-1.5,0-2.3-0.7-2.3-1.8c0-1.1,0.8-1.7,2.2-1.7c0.9,0,1.9,0,2.8,0
			c0.1,0,0.1-0.1,0.3-0.1c0-1.5,0-3.1,0-4.7c0-1.4,0.6-2.2,1.7-2.3c1.1,0,1.8,0.8,1.8,2.3c0,1.6,0,3.1,0,4.8c1.1,0,2.1,0,3.2,0
			c1.3,0,2.1,0.7,2.1,1.8c0,1.1-0.8,1.8-2.1,1.8c-1,0-2.1,0-3.3,0c0,0.8,0,1.6,0,2.3c0,2.1,0,4.2,0,6.3c0,1.2-0.7,2-1.8,2
			c-1,0-1.8-0.8-1.8-2C126.1,107.2,126.1,104.4,126.1,101.4z"/>
	</g>
</g>
</svg>
